<?xml version="1.0" encoding="UTF-8"?>
<svg id="Layer_1" data-name="Layer 1" xmlns="http://www.w3.org/2000/svg" viewBox="0 0 245.27 245.27">
  <defs>
    <style>
      .cls-1 {
        fill: #fff0de;
      }

      .cls-2 {
        fill: #1f3568;
      }
    </style>
  </defs>
  <path class="cls-2" d="M54.86,160.97c-1.5,1.56-3.47,2.41-5.85,2.41s-4.18-.82-5.65-2.29c-2.12-2.12-2.06-4.74-2.06-8.35s-.06-6.24,2.06-8.36c1.47-1.47,3.29-2.29,5.65-2.29,2.91,0,4.53.79,6.41,2.68l-2.77,2.77c-1.18-1.18-2.03-1.8-3.65-1.8-1.12,0-2.03.44-2.62,1.12-.79.88-1,1.85-1,5.88s.21,5.03,1,5.91c.59.68,1.5,1.09,2.62,1.09,1.24,0,2.12-.44,2.79-1.18.68-.74.91-1.82.91-2.85v-.74h-3.71v-3.41h7.8v3c0,3.03-.47,4.88-1.94,6.41"/>
  <polyline class="cls-2" points="59.78 163.2 59.78 142.26 73.58 142.26 73.58 145.91 63.87 145.91 63.87 150.82 72.14 150.82 72.14 154.47 63.87 154.47 63.87 159.56 73.58 159.56 73.58 163.2 59.78 163.2"/>
  <path class="cls-2" d="M85.35,163.2h-8.77v-20.95h8.41c4.09,0,6.47,2.29,6.47,5.88,0,2.32-1.53,3.82-2.59,4.32,1.27.59,2.88,1.91,2.88,4.71,0,3.91-2.68,6.03-6.41,6.03M84.67,145.91h-4v4.82h4c1.74,0,2.71-.97,2.71-2.41s-.97-2.41-2.71-2.41ZM84.93,154.41h-4.27v5.15h4.27c1.85,0,2.74-1.18,2.74-2.59s-.88-2.56-2.74-2.56Z"/>
  <path class="cls-2" d="M106.88,163.2l-1.24-3.71h-7.44l-1.26,3.71h-4.27l7.62-20.95h3.21l7.65,20.95h-4.27M102,148.44l-2.65,7.62h5.21l-2.56-7.62Z"/>
  <polyline class="cls-2" points="126.62 145.91 126.62 163.2 122.53 163.2 122.53 145.91 117.06 145.91 117.06 142.26 132.09 142.26 132.09 145.91 126.62 145.91"/>
  <path class="cls-2" d="M145.54,163.2l-4.09-8.36h-2.94v8.36h-4.09v-20.95h8.21c4.27,0,6.8,2.91,6.8,6.41,0,2.94-1.79,4.77-3.82,5.5l4.68,9.03h-4.74M142.36,145.91h-3.85v5.53h3.85c1.8,0,2.97-1.15,2.97-2.77s-1.18-2.77-2.97-2.77Z"/>
  <path class="cls-2" d="M164.61,163.2l-1.24-3.71h-7.44l-1.27,3.71h-4.27l7.62-20.95h3.21l7.65,20.95h-4.27M159.72,148.44l-2.65,7.62h5.21l-2.56-7.62Z"/>
  <polyline class="cls-2" points="182.88 163.2 174.58 150.35 174.58 163.2 170.49 163.2 170.49 142.26 174.14 142.26 182.43 155.08 182.43 142.26 186.53 142.26 186.53 163.2 182.88 163.2"/>
  <path class="cls-2" d="M196.21,163.38c-3.18,0-5.59-.68-7.65-2.76l2.65-2.65c1.32,1.32,3.12,1.77,5.06,1.77,2.41,0,3.71-.91,3.71-2.59,0-.74-.21-1.35-.65-1.77-.41-.38-.88-.59-1.85-.74l-2.53-.35c-1.79-.27-3.12-.82-4.06-1.74-1-1-1.5-2.35-1.5-4.12,0-3.74,2.76-6.35,7.3-6.35,2.88,0,4.97.71,6.77,2.44l-2.59,2.56c-1.32-1.26-2.91-1.44-4.3-1.44-2.18,0-3.24,1.21-3.24,2.65,0,.53.18,1.09.62,1.5.41.38,1.09.71,1.94.82l2.47.35c1.91.26,3.12.79,4,1.62,1.12,1.06,1.62,2.59,1.62,4.44,0,4.06-3.38,6.35-7.77,6.35"/>
  <path class="cls-2" d="M175.58,97.49c3.37-2.5,5.74-4.68,7.22-6.57,3.25-4.17,2.1-6.99-2.54-9.01,0,0-35.55-1.84-134.89,48.58,0,0,4.24-1.53,11.52-4.04,20.35-7.02,37.45-10.26,64.42-8.28,3.5.26,7.18.6,11.04,1.04,7.64.86,16.04,2.08,25.43,3.68,0,0,1.16-4.03,4.07-9.31.64-1.15,1.36-2.37,2.17-3.61,2.74-4.19,6.5-8.72,11.55-12.47"/>
  <path class="cls-1" d="M191.67,90.4c2.53-8.95-11.41-8.5-11.41-8.5,4.64,2.02,5.79,4.84,2.54,9.01-1.46,1.93-3.84,4.11-7.22,6.57-5.05,3.76-8.81,8.29-11.55,12.47,9.98-4.08,15.66-7.64,15.66-7.64,4.71-3.08,7.64-5.87,11.51-5.87,5.67,0,6.6-.05,6.6,3.05,0,0,7.61-10.85-6.13-9.1"/>
  <path class="cls-1" d="M56.89,126.44c-7.28,2.51-11.52,4.04-11.52,4.04,0,0,29.1-6.57,68.41-9.01,6.57-.41,12.78-1.22,18.58-2.28-3.86-.43-7.54-.78-11.04-1.04-26.97-1.98-44.08,1.26-64.42,8.28"/>
</svg>