<?xml version="1.0" encoding="UTF-8"?>
<svg id="Layer_1" data-name="Layer 1" xmlns="http://www.w3.org/2000/svg" viewBox="0 0 841.89 595.28">
  <defs>
    <style>
      .cls-1 {
        fill: #0553dd;
      }

      .cls-2 {
        fill: #f6b82a;
      }

      .cls-3 {
        fill: #eff4fb;
      }
    </style>
  </defs>
  <g>
    <path class="cls-3" d="M153.6,406.76c-5.92,6.15-13.69,9.51-23.09,9.51s-16.48-3.25-22.28-9.05c-8.36-8.35-8.12-18.68-8.12-32.96s-.23-24.6,8.12-32.96c5.8-5.81,13-9.05,22.28-9.05,11.49,0,17.87,3.13,25.3,10.56l-10.91,10.91c-4.64-4.64-8.01-7.08-14.39-7.08-4.41,0-8.01,1.74-10.33,4.41-3.14,3.48-3.95,7.31-3.95,23.21s.81,19.84,3.95,23.32c2.32,2.67,5.92,4.3,10.33,4.3,4.88,0,8.36-1.74,11.02-4.64,2.67-2.91,3.6-7.2,3.6-11.26v-2.9h-14.62v-13.46h30.75v11.84c0,11.95-1.86,19.26-7.66,25.3"/>
    <polyline class="cls-3" points="172.98 415.58 172.98 332.95 227.41 332.95 227.41 347.34 189.12 347.34 189.12 366.72 221.73 366.72 221.73 381.11 189.12 381.11 189.12 401.19 227.41 401.19 227.41 415.58 172.98 415.58"/>
    <path class="cls-3" d="M273.84,415.58h-34.58v-82.63h33.19c16.13,0,25.53,9.05,25.53,23.21,0,9.17-6.04,15.08-10.21,17.06,4.99,2.32,11.38,7.54,11.38,18.57,0,15.43-10.56,23.79-25.3,23.79M271.17,347.34h-15.78v19.03h15.78c6.85,0,10.68-3.83,10.68-9.52s-3.83-9.51-10.68-9.51ZM272.22,380.88h-16.83v20.31h16.83c7.31,0,10.79-4.64,10.79-10.21s-3.48-10.1-10.79-10.1Z"/>
    <path class="cls-3" d="M358.79,415.58l-4.87-14.62h-29.36l-4.99,14.62h-16.83l30.06-82.63h12.65l30.17,82.63h-16.83M339.53,357.32l-10.45,30.06h20.54l-10.1-30.06Z"/>
    <polyline class="cls-3" points="436.67 347.34 436.67 415.58 420.54 415.58 420.54 347.34 398.95 347.34 398.95 332.95 458.25 332.95 458.25 347.34 436.67 347.34"/>
    <path class="cls-3" d="M511.29,415.58l-16.13-32.96h-11.6v32.96h-16.13v-82.63h32.38c16.83,0,26.81,11.49,26.81,25.3,0,11.6-7.08,18.8-15.09,21.7l18.45,35.63h-18.69M498.76,347.34h-15.2v21.82h15.2c7.08,0,11.72-4.53,11.72-10.91s-4.64-10.91-11.72-10.91Z"/>
    <path class="cls-3" d="M586.5,415.58l-4.88-14.62h-29.36l-4.99,14.62h-16.83l30.06-82.63h12.65l30.18,82.63h-16.83M567.24,357.32l-10.45,30.06h20.54l-10.09-30.06Z"/>
    <polyline class="cls-3" points="658.57 415.58 625.85 364.86 625.85 415.58 609.72 415.58 609.72 332.95 624.11 332.95 656.83 383.55 656.83 332.95 672.97 332.95 672.97 415.58 658.57 415.58"/>
    <path class="cls-3" d="M711.15,416.27c-12.53,0-22.05-2.66-30.18-10.91l10.45-10.45c5.22,5.23,12.3,6.97,19.96,6.97,9.52,0,14.63-3.6,14.63-10.21,0-2.9-.81-5.34-2.56-6.97-1.62-1.51-3.48-2.32-7.31-2.9l-9.98-1.39c-7.08-1.05-12.3-3.25-16.01-6.85-3.95-3.94-5.92-9.28-5.92-16.25,0-14.74,10.9-25.07,28.78-25.07,11.37,0,19.61,2.78,26.69,9.63l-10.21,10.1c-5.22-4.99-11.49-5.69-16.94-5.69-8.59,0-12.77,4.76-12.77,10.45,0,2.09.7,4.3,2.44,5.92,1.63,1.51,4.3,2.79,7.66,3.25l9.75,1.39c7.54,1.04,12.3,3.13,15.79,6.38,4.41,4.18,6.38,10.21,6.38,17.52,0,16.01-13.34,25.06-30.64,25.06"/>
    <path class="cls-1" d="M629.79,156.34c13.3-9.87,22.65-18.46,28.48-25.92,12.82-16.46,8.28-27.57-10.02-35.55,0,0-140.23-7.24-532.11,191.65,0,0,16.73-6.04,45.45-15.95,80.26-27.7,147.74-40.48,254.12-32.68,13.82,1.02,28.32,2.39,43.56,4.1,30.14,3.4,63.28,8.21,100.31,14.52,0,0,4.57-15.91,16.05-36.72,2.51-4.55,5.38-9.33,8.58-14.24,10.8-16.51,25.63-34.38,45.57-49.21"/>
    <path class="cls-2" d="M693.27,128.4c9.97-35.29-45.01-33.54-45.01-33.54,18.3,7.98,22.84,19.1,10.02,35.55-5.75,7.62-15.13,16.21-28.48,25.92-19.93,14.82-34.77,32.69-45.57,49.21,39.36-16.08,61.76-30.14,61.76-30.14,18.59-12.14,30.14-23.14,45.42-23.14,22.37,0,26.04-.19,26.04,12.04,0,0,30.03-42.81-24.18-35.9"/>
    <path class="cls-2" d="M161.59,270.56c-28.72,9.91-45.45,15.95-45.45,15.95,0,0,114.78-25.92,269.87-35.55,25.92-1.6,50.42-4.79,73.28-8.98-15.24-1.71-29.74-3.08-43.56-4.1-106.38-7.8-173.87,4.98-254.13,32.68"/>
  </g>
  <g>
    <path class="cls-3" d="M103.06,477.62v1.11c0,5.23,2.47,8.98,8.17,8.98,3.28,0,5.48-.95,6.99-3.22l2.37,1.64c-1.88,2.91-4.84,4.28-9.19,4.28-7.15,0-11.29-4.33-11.29-11.68v-3.8c0-7.5,3.66-11.57,10.38-11.57s10.38,4.07,10.38,11.57v2.7h-17.79ZM103.06,474.98h14.84v-.05c0-5.76-2.53-8.88-7.42-8.88s-7.42,3.17-7.42,8.88v.05Z"/>
    <path class="cls-3" d="M142.3,490.09l-7.79-10.99-7.85,10.99h-3.5l9.62-13.52-8.82-12.89h3.49l7.04,10.41,6.99-10.41h3.55l-8.82,12.89,9.62,13.52h-3.55Z"/>
    <path class="cls-3" d="M171.98,478.73c0,7.24-3.49,11.68-10.48,11.68-4.09,0-6.61-1.11-8.12-3.44v13.16h-2.96v-36.45h2.96v3.33c1.51-2.38,4.03-3.65,8.12-3.65,6.67,0,10.48,4.07,10.48,11.57v3.8ZM169.02,478.73v-3.8c0-5.76-2.64-8.88-7.74-8.88-5.7,0-7.9,3.38-7.9,8.56v4.6c.05,4.97,1.99,8.51,7.9,8.51,5.16,0,7.74-3.44,7.74-8.98Z"/>
    <path class="cls-3" d="M179.78,477.62v1.11c0,5.23,2.47,8.98,8.17,8.98,3.28,0,5.48-.95,6.99-3.22l2.37,1.64c-1.88,2.91-4.84,4.28-9.19,4.28-7.15,0-11.29-4.33-11.29-11.68v-3.8c0-7.5,3.66-11.57,10.37-11.57s10.37,4.07,10.37,11.57v2.7h-17.79ZM179.78,474.98h14.84v-.05c0-5.76-2.53-8.88-7.42-8.88s-7.42,3.17-7.42,8.88v.05Z"/>
    <path class="cls-3" d="M207.14,474.19v15.9h-2.96v-26.42h2.96v3.59c1.13-2.43,3.39-3.91,6.77-3.91s5.81,1.32,7.58,3.65l-2.47,1.79c-1.4-1.79-3.01-2.69-5.38-2.69-4.19,0-6.5,3.28-6.5,8.08Z"/>
    <path class="cls-3" d="M225.47,453.64h3.6v3.54h-3.6v-3.54ZM225.8,463.68h2.96v26.42h-2.96v-26.42Z"/>
    <path class="cls-3" d="M238.7,477.62v1.11c0,5.23,2.47,8.98,8.17,8.98,3.28,0,5.48-.95,6.99-3.22l2.37,1.64c-1.88,2.91-4.84,4.28-9.19,4.28-7.15,0-11.29-4.33-11.29-11.68v-3.8c0-7.5,3.66-11.57,10.37-11.57s10.37,4.07,10.37,11.57v2.7h-17.79ZM238.7,474.98h14.84v-.05c0-5.76-2.53-8.88-7.42-8.88s-7.42,3.17-7.42,8.88v.05Z"/>
    <path class="cls-3" d="M263.11,463.68h2.96v3.59c1.4-2.54,3.87-3.91,7.9-3.91,5.97,0,9.89,3.65,9.89,11.09v15.64h-2.96v-15.59c0-6.02-3.07-8.4-7.26-8.4-5.05,0-7.58,3.28-7.58,8.14v15.85h-2.96v-26.42Z"/>
    <path class="cls-3" d="M310.52,486.13c-1.78,2.8-4.95,4.28-9.14,4.28-7.2,0-11.34-4.23-11.34-11.68v-3.8c0-7.5,4.25-11.57,11.34-11.57,3.92,0,7.1,1.37,9.08,4.07l-2.37,1.58c-1.51-2.01-4.03-2.96-6.72-2.96-5.32,0-8.39,3.17-8.39,8.88v3.8c0,5.23,2.47,8.98,8.39,8.98,2.74,0,5.27-.9,6.77-3.22l2.37,1.64Z"/>
    <path class="cls-3" d="M316.81,477.62v1.11c0,5.23,2.47,8.98,8.17,8.98,3.28,0,5.48-.95,6.99-3.22l2.37,1.64c-1.88,2.91-4.84,4.28-9.19,4.28-7.15,0-11.29-4.33-11.29-11.68v-3.8c0-7.5,3.66-11.57,10.38-11.57s10.38,4.07,10.38,11.57v2.7h-17.79ZM316.81,474.98h14.84v-.05c0-5.76-2.53-8.88-7.42-8.88s-7.42,3.17-7.42,8.88v.05Z"/>
    <path class="cls-3" d="M354.66,453.64h2.96v13.63c1.45-2.54,3.93-3.91,7.9-3.91,5.97,0,9.89,3.65,9.89,11.09v15.64h-2.96v-15.59c0-6.02-3.06-8.4-7.26-8.4-5.05,0-7.58,3.28-7.58,8.14v15.85h-2.96v-36.45Z"/>
    <path class="cls-3" d="M383.42,453.64h3.6v3.54h-3.6v-3.54ZM383.75,463.68h2.96v26.42h-2.96v-26.42Z"/>
    <path class="cls-3" d="M393.69,474.93c0-7.5,3.82-11.57,10.48-11.57,4.03,0,6.61,1.27,8.12,3.75v-3.43h2.96v25.36c0,7.34-4.03,11.41-10.97,11.41-4.3,0-7.15-1.37-8.92-4.28l2.31-1.64c1.45,2.27,3.66,3.22,6.78,3.22,5.43,0,7.85-3.48,7.85-8.72v-2.16c-1.51,2.43-4.09,3.54-8.12,3.54-6.99,0-10.48-4.44-10.48-11.68v-3.8ZM412.29,478.79v-4.17c0-5.18-2.31-8.56-7.9-8.56-5.11,0-7.74,3.12-7.74,8.88v3.8c0,5.55,2.53,8.98,7.74,8.98,6.02,0,7.9-3.75,7.9-8.93Z"/>
    <path class="cls-3" d="M422.77,453.64h2.96v13.63c1.45-2.54,3.92-3.91,7.9-3.91,5.97,0,9.89,3.65,9.89,11.09v15.64h-2.96v-15.59c0-6.02-3.07-8.4-7.26-8.4-5.05,0-7.58,3.28-7.58,8.14v15.85h-2.96v-36.45Z"/>
    <path class="cls-3" d="M486.05,478.73c0,7.24-3.5,11.68-10.48,11.68-4.09,0-6.61-1.11-8.12-3.44v13.16h-2.96v-36.45h2.96v3.33c1.51-2.38,4.03-3.65,8.12-3.65,6.67,0,10.48,4.07,10.48,11.57v3.8ZM483.09,478.73v-3.8c0-5.76-2.63-8.88-7.74-8.88-5.7,0-7.9,3.38-7.9,8.56v4.6c.06,4.97,1.99,8.51,7.9,8.51,5.16,0,7.74-3.44,7.74-8.98Z"/>
    <path class="cls-3" d="M493.85,477.62v1.11c0,5.23,2.47,8.98,8.17,8.98,3.28,0,5.48-.95,6.99-3.22l2.37,1.64c-1.88,2.91-4.84,4.28-9.19,4.28-7.15,0-11.29-4.33-11.29-11.68v-3.8c0-7.5,3.66-11.57,10.38-11.57s10.38,4.07,10.38,11.57v2.7h-17.79ZM493.85,474.98h14.84v-.05c0-5.76-2.53-8.88-7.42-8.88s-7.42,3.17-7.42,8.88v.05Z"/>
    <path class="cls-3" d="M521.21,474.19v15.9h-2.96v-26.42h2.96v3.59c1.13-2.43,3.39-3.91,6.78-3.91s5.81,1.32,7.58,3.65l-2.47,1.79c-1.4-1.79-3.01-2.69-5.38-2.69-4.19,0-6.51,3.28-6.51,8.08Z"/>
    <path class="cls-3" d="M540.13,463.68v-1.9c0-5.55,1.72-8.14,7.63-8.14h1.24v2.8h-1.19c-4.3,0-4.73,2.01-4.73,6.07v1.16h5.92v2.7h-5.92v23.72h-2.96v-23.72h-3.44v-2.7h3.44Z"/>
    <path class="cls-3" d="M563.41,490.41c-6.94,0-10.91-4.23-10.91-11.62v-3.86c0-7.5,4.03-11.57,10.91-11.57s10.91,4.07,10.91,11.57v3.86c0,7.19-3.71,11.62-10.91,11.62ZM571.37,474.93c0-5.76-2.85-8.88-7.96-8.88s-7.96,3.12-7.96,8.88v3.86c0,5.55,2.53,8.93,7.96,8.93s7.96-3.38,7.96-8.93v-3.86Z"/>
    <path class="cls-3" d="M583.47,474.19v15.9h-2.96v-26.42h2.96v3.59c1.13-2.43,3.39-3.91,6.77-3.91s5.81,1.32,7.58,3.65l-2.47,1.79c-1.4-1.79-3.01-2.69-5.38-2.69-4.19,0-6.5,3.28-6.5,8.08Z"/>
    <path class="cls-3" d="M601.31,463.68h2.96v3.59c1.13-2.43,3.55-3.91,7.1-3.91,3.82,0,6.61,1.8,8.01,5.18,1.51-3.33,4.46-5.18,8.17-5.18,5.64,0,9.08,3.91,9.08,11.09v15.64h-2.96v-15.59c0-5.76-2.58-8.4-6.45-8.4-4.3,0-6.77,3.12-6.77,7.77v16.22h-2.96v-15.59c0-5.76-2.58-8.4-6.45-8.4-4.41,0-6.77,3.28-6.77,8.14v15.85h-2.96v-26.42Z"/>
    <path class="cls-3" d="M651.96,475.09h7.85v-3.28c0-4.49-1.83-5.71-6.77-5.71-3.23,0-5.32.21-7.04,3.01l-2.26-1.53c1.88-3.12,4.57-4.23,9.35-4.23,6.56,0,9.68,2.01,9.68,8.45v18.28h-2.96v-3.28c-1.51,2.8-4.19,3.59-7.63,3.59-5.97,0-9.36-2.8-9.36-7.87s3.6-7.45,9.14-7.45ZM659.8,477.68h-7.85c-4.63,0-6.18,2.11-6.18,4.91,0,3.7,2.63,5.07,6.4,5.07,4.35,0,7.63-1.48,7.63-7.4v-2.59Z"/>
    <path class="cls-3" d="M670.29,463.68h2.96v3.59c1.4-2.54,3.87-3.91,7.9-3.91,5.97,0,9.89,3.65,9.89,11.09v15.64h-2.96v-15.59c0-6.02-3.07-8.4-7.26-8.4-5.05,0-7.58,3.28-7.58,8.14v15.85h-2.96v-26.42Z"/>
    <path class="cls-3" d="M717.7,486.13c-1.78,2.8-4.95,4.28-9.14,4.28-7.2,0-11.34-4.23-11.34-11.68v-3.8c0-7.5,4.25-11.57,11.34-11.57,3.92,0,7.1,1.37,9.08,4.07l-2.37,1.58c-1.51-2.01-4.03-2.96-6.72-2.96-5.32,0-8.39,3.17-8.39,8.88v3.8c0,5.23,2.47,8.98,8.39,8.98,2.74,0,5.27-.9,6.77-3.22l2.37,1.64Z"/>
    <path class="cls-3" d="M724,477.62v1.11c0,5.23,2.47,8.98,8.17,8.98,3.28,0,5.48-.95,6.99-3.22l2.37,1.64c-1.88,2.91-4.84,4.28-9.19,4.28-7.15,0-11.29-4.33-11.29-11.68v-3.8c0-7.5,3.66-11.57,10.38-11.57s10.38,4.07,10.38,11.57v2.7h-17.79ZM724,474.98h14.84v-.05c0-5.76-2.53-8.88-7.42-8.88s-7.42,3.17-7.42,8.88v.05Z"/>
  </g>
</svg>