<?xml version="1.0" encoding="UTF-8"?>
<svg id="Layer_1" data-name="Layer 1" xmlns="http://www.w3.org/2000/svg" viewBox="0 0 245.27 245.27">
  <defs>
    <style>
      .cls-1 {
        fill: #f5b726;
      }

      .cls-2 {
        fill: #232358;
      }
    </style>
  </defs>
  <path class="cls-2" d="M45.79,166.1c-1.7,1.77-3.94,2.73-6.64,2.73s-4.74-.93-6.4-2.6c-2.4-2.4-2.33-5.37-2.33-9.47s-.07-7.07,2.33-9.47c1.67-1.67,3.74-2.6,6.4-2.6,3.3,0,5.14.9,7.27,3.03l-3.14,3.14c-1.33-1.33-2.3-2.04-4.14-2.04-1.27,0-2.3.5-2.97,1.27-.9,1-1.13,2.1-1.13,6.67s.23,5.7,1.13,6.7c.67.77,1.7,1.23,2.97,1.23,1.4,0,2.4-.5,3.17-1.33.77-.84,1.03-2.07,1.03-3.24v-.83h-4.2v-3.87h8.84v3.4c0,3.43-.53,5.54-2.2,7.27"/>
  <polyline class="cls-2" points="51.36 168.64 51.36 144.88 67.01 144.88 67.01 149.02 56 149.02 56 154.59 65.37 154.59 65.37 158.73 56 158.73 56 164.5 67.01 164.5 67.01 168.64 51.36 168.64"/>
  <path class="cls-2" d="M80.35,168.64h-9.94v-23.75h9.54c4.64,0,7.34,2.6,7.34,6.67,0,2.64-1.73,4.34-2.94,4.9,1.43.67,3.27,2.17,3.27,5.34,0,4.44-3.04,6.84-7.27,6.84M79.59,149.02h-4.54v5.47h4.54c1.97,0,3.07-1.1,3.07-2.74s-1.1-2.73-3.07-2.73ZM79.89,158.66h-4.84v5.84h4.84c2.1,0,3.1-1.33,3.1-2.94s-1-2.9-3.1-2.9Z"/>
  <path class="cls-2" d="M104.77,168.64l-1.4-4.2h-8.44l-1.43,4.2h-4.84l8.64-23.75h3.64l8.67,23.75h-4.84M99.23,151.89l-3,8.64h5.91l-2.9-8.64Z"/>
  <polyline class="cls-2" points="127.16 149.02 127.16 168.64 122.52 168.64 122.52 149.02 116.32 149.02 116.32 144.88 133.36 144.88 133.36 149.02 127.16 149.02"/>
  <path class="cls-2" d="M148.61,168.64l-4.64-9.47h-3.33v9.47h-4.64v-23.75h9.31c4.84,0,7.71,3.3,7.71,7.27,0,3.33-2.04,5.4-4.34,6.24l5.3,10.24h-5.37M145,149.02h-4.37v6.27h4.37c2.04,0,3.37-1.3,3.37-3.14s-1.33-3.14-3.37-3.14Z"/>
  <path class="cls-2" d="M170.23,168.64l-1.4-4.2h-8.44l-1.44,4.2h-4.84l8.64-23.75h3.64l8.67,23.75h-4.84M164.69,151.89l-3,8.64h5.9l-2.9-8.64Z"/>
  <polyline class="cls-2" points="190.94 168.64 181.53 154.06 181.53 168.64 176.9 168.64 176.9 144.88 181.03 144.88 190.44 159.43 190.44 144.88 195.08 144.88 195.08 168.64 190.94 168.64"/>
  <path class="cls-2" d="M206.05,168.84c-3.6,0-6.34-.77-8.67-3.13l3-3c1.5,1.5,3.54,2,5.74,2,2.74,0,4.2-1.03,4.2-2.94,0-.83-.23-1.54-.73-2-.47-.43-1-.67-2.1-.83l-2.87-.4c-2.03-.3-3.54-.93-4.6-1.97-1.13-1.13-1.7-2.67-1.7-4.67,0-4.24,3.13-7.21,8.27-7.21,3.27,0,5.64.8,7.67,2.77l-2.94,2.9c-1.5-1.43-3.3-1.63-4.87-1.63-2.47,0-3.67,1.37-3.67,3,0,.6.2,1.23.7,1.7.47.43,1.23.8,2.2.93l2.8.4c2.17.3,3.54.9,4.54,1.83,1.27,1.2,1.83,2.94,1.83,5.04,0,4.6-3.84,7.2-8.81,7.2"/>
  <path class="cls-2" d="M182.67,94.12c3.82-2.84,6.51-5.31,8.19-7.45,3.69-4.73,2.38-7.92-2.88-10.22,0,0-40.31-2.08-152.95,55.09,0,0,4.81-1.74,13.06-4.59,23.07-7.96,42.47-11.64,73.05-9.39,3.97.29,8.14.69,12.52,1.18,8.66.98,18.19,2.36,28.83,4.17,0,0,1.31-4.57,4.61-10.55.72-1.31,1.55-2.68,2.46-4.09,3.1-4.75,7.37-9.88,13.1-14.14"/>
  <path class="cls-1" d="M200.91,86.09c2.86-10.14-12.94-9.64-12.94-9.64,5.26,2.29,6.57,5.49,2.88,10.22-1.65,2.19-4.35,4.66-8.19,7.45-5.73,4.26-9.99,9.4-13.1,14.14,11.31-4.62,17.75-8.66,17.75-8.66,5.34-3.49,8.66-6.65,13.06-6.65,6.43,0,7.49-.06,7.49,3.46,0,0,8.63-12.31-6.95-10.32"/>
  <path class="cls-1" d="M48.09,126.95c-8.25,2.85-13.07,4.59-13.07,4.59,0,0,32.99-7.45,77.57-10.22,7.45-.46,14.49-1.38,21.06-2.58-4.38-.49-8.55-.89-12.52-1.18-30.58-2.24-49.98,1.43-73.05,9.39"/>
</svg>