<?xml version="1.0" encoding="UTF-8"?>
<svg id="Layer_1" data-name="Layer 1" xmlns="http://www.w3.org/2000/svg" viewBox="0 0 841.89 595.28">
  <defs>
    <style>
      .cls-1 {
        fill: #f7b82d;
      }

      .cls-2 {
        fill: #10195b;
      }
    </style>
  </defs>
  <g>
    <path class="cls-2" d="M110.15,424.49c-6.88,7.15-15.92,11.06-26.85,11.06s-19.16-3.77-25.9-10.52c-9.71-9.71-9.44-21.72-9.44-38.31s-.27-28.6,9.44-38.32c6.74-6.75,15.11-10.52,25.9-10.52,13.36,0,20.78,3.64,29.41,12.27l-12.68,12.69c-5.4-5.4-9.31-8.23-16.73-8.23-5.13,0-9.31,2.03-12.01,5.13-3.65,4.05-4.59,8.5-4.59,26.98s.94,23.07,4.59,27.12c2.7,3.1,6.88,4.99,12.01,4.99,5.67,0,9.71-2.03,12.82-5.39,3.11-3.38,4.19-8.37,4.19-13.09v-3.37h-17v-15.65h35.75v13.76c0,13.89-2.16,22.39-8.9,29.41"/>
    <polyline class="cls-2" points="132.68 434.75 132.68 338.68 195.96 338.68 195.96 355.42 151.44 355.42 151.44 377.95 189.35 377.95 189.35 394.68 151.44 394.68 151.44 418.02 195.96 418.02 195.96 434.75 132.68 434.75"/>
    <path class="cls-2" d="M249.93,434.75h-40.2v-96.06h38.58c18.75,0,29.68,10.52,29.68,26.98,0,10.66-7.02,17.54-11.87,19.83,5.8,2.7,13.22,8.77,13.22,21.59,0,17.94-12.28,27.66-29.41,27.66M246.83,355.42h-18.35v22.13h18.35c7.96,0,12.41-4.46,12.41-11.07s-4.45-11.06-12.41-11.06ZM248.04,394.41h-19.56v23.61h19.56c8.5,0,12.55-5.39,12.55-11.87s-4.05-11.74-12.55-11.74Z"/>
    <path class="cls-2" d="M348.69,434.75l-5.67-17h-34.14l-5.8,17h-19.56l34.94-96.06h14.71l35.08,96.06h-19.56M326.29,367.02l-12.14,34.94h23.88l-11.74-34.94Z"/>
    <polyline class="cls-2" points="439.22 355.42 439.22 434.75 420.47 434.75 420.47 355.42 395.38 355.42 395.38 338.68 464.32 338.68 464.32 355.42 439.22 355.42"/>
    <path class="cls-2" d="M525.98,434.75l-18.76-38.32h-13.49v38.32h-18.76v-96.06h37.64c19.56,0,31.17,13.36,31.17,29.41,0,13.49-8.23,21.85-17.54,25.23l21.45,41.42h-21.72M511.41,355.42h-17.67v25.36h17.67c8.23,0,13.63-5.26,13.63-12.68s-5.4-12.68-13.63-12.68Z"/>
    <path class="cls-2" d="M613.41,434.75l-5.67-17h-34.13l-5.81,17h-19.57l34.95-96.06h14.71l35.08,96.06h-19.56M591.02,367.02l-12.15,34.94h23.88l-11.73-34.94Z"/>
    <polyline class="cls-2" points="697.2 434.75 659.15 375.79 659.15 434.75 640.4 434.75 640.4 338.68 657.13 338.68 695.17 397.51 695.17 338.68 713.93 338.68 713.93 434.75 697.2 434.75"/>
    <path class="cls-2" d="M758.32,435.55c-14.57,0-25.63-3.1-35.08-12.68l12.15-12.15c6.07,6.08,14.3,8.1,23.2,8.1,11.07,0,17-4.18,17-11.87,0-3.37-.95-6.21-2.97-8.1-1.88-1.75-4.05-2.69-8.5-3.37l-11.6-1.62c-8.23-1.22-14.3-3.78-18.62-7.96-4.59-4.58-6.88-10.79-6.88-18.89,0-17.13,12.68-29.14,33.46-29.14,13.22,0,22.8,3.24,31.03,11.19l-11.87,11.74c-6.07-5.8-13.36-6.61-19.7-6.61-9.99,0-14.84,5.53-14.84,12.14,0,2.43.81,4.99,2.83,6.88,1.89,1.75,4.99,3.24,8.91,3.78l11.33,1.62c8.77,1.21,14.3,3.64,18.35,7.42,5.12,4.85,7.42,11.87,7.42,20.37,0,18.62-15.51,29.14-35.62,29.14"/>
    <path class="cls-2" d="M663.74,133.37c15.46-11.47,26.33-21.46,33.11-30.14,14.91-19.13,9.63-32.05-11.65-41.33,0,0-163.02-8.42-618.6,222.8,0,0,19.45-7.03,52.84-18.55,93.3-32.21,171.76-47.06,295.43-37.99,16.07,1.18,32.92,2.77,50.64,4.77,35.04,3.95,73.57,9.54,116.62,16.88,0,0,5.32-18.5,18.66-42.69,2.92-5.29,6.25-10.85,9.97-16.56,12.55-19.19,29.8-39.97,52.98-57.2"/>
    <path class="cls-1" d="M737.53,100.89c11.59-41.02-52.33-38.99-52.33-38.99,21.27,9.28,26.55,22.2,11.65,41.33-6.68,8.86-17.59,18.84-33.11,30.14-23.17,17.23-40.42,38.01-52.97,57.2,45.76-18.69,71.8-35.04,71.8-35.04,21.61-14.11,35.04-26.9,52.81-26.9,26.01,0,30.28-.22,30.28,14,0,0,34.92-49.77-28.11-41.74"/>
    <path class="cls-1" d="M119.44,266.15c-33.39,11.52-52.84,18.55-52.84,18.55,0,0,133.43-30.13,313.73-41.33,30.13-1.86,58.61-5.57,85.19-10.44-17.72-1.99-34.58-3.58-50.64-4.77-123.67-9.07-202.13,5.79-295.43,37.99"/>
  </g>
  <g>
    <path class="cls-2" d="M51.39,506.88v1.29c0,6.08,2.87,10.44,9.5,10.44,3.81,0,6.37-1.11,8.12-3.75l2.75,1.9c-2.19,3.38-5.62,4.98-10.68,4.98-8.31,0-13.13-5.04-13.13-13.58v-4.42c0-8.72,4.25-13.45,12.06-13.45s12.06,4.73,12.06,13.45v3.13h-20.68ZM51.39,503.81h17.25v-.06c0-6.69-2.94-10.32-8.62-10.32s-8.62,3.69-8.62,10.32v.06Z"/>
    <path class="cls-2" d="M97.01,521.37l-9.06-12.78-9.12,12.78h-4.06l11.19-15.72-10.25-14.99h4.06l8.19,12.1,8.12-12.1h4.12l-10.25,14.99,11.19,15.72h-4.13Z"/>
    <path class="cls-2" d="M131.51,508.17c0,8.42-4.06,13.58-12.18,13.58-4.75,0-7.68-1.29-9.43-3.99v15.29h-3.44v-42.38h3.44v3.87c1.75-2.77,4.69-4.24,9.43-4.24,7.75,0,12.18,4.73,12.18,13.45v4.42ZM128.08,508.17v-4.42c0-6.69-3.06-10.32-9-10.32-6.62,0-9.18,3.93-9.18,9.95v5.34c.06,5.77,2.31,9.89,9.18,9.89,6,0,9-3.99,9-10.44Z"/>
    <path class="cls-2" d="M140.58,506.88v1.29c0,6.08,2.87,10.44,9.5,10.44,3.81,0,6.37-1.11,8.12-3.75l2.75,1.9c-2.19,3.38-5.62,4.98-10.69,4.98-8.31,0-13.12-5.04-13.12-13.58v-4.42c0-8.72,4.25-13.45,12.06-13.45s12.06,4.73,12.06,13.45v3.13h-20.68ZM140.58,503.81h17.25v-.06c0-6.69-2.94-10.32-8.62-10.32s-8.62,3.69-8.62,10.32v.06Z"/>
    <path class="cls-2" d="M172.39,502.89v18.49h-3.44v-30.71h3.44v4.18c1.31-2.83,3.94-4.55,7.87-4.55s6.75,1.54,8.81,4.24l-2.87,2.09c-1.62-2.09-3.5-3.13-6.25-3.13-4.87,0-7.56,3.81-7.56,9.4Z"/>
    <path class="cls-2" d="M193.7,478.99h4.19v4.11h-4.19v-4.11ZM194.08,490.66h3.44v30.71h-3.44v-30.71Z"/>
    <path class="cls-2" d="M209.08,506.88v1.29c0,6.08,2.87,10.44,9.5,10.44,3.81,0,6.37-1.11,8.12-3.75l2.75,1.9c-2.19,3.38-5.62,4.98-10.69,4.98-8.31,0-13.12-5.04-13.12-13.58v-4.42c0-8.72,4.25-13.45,12.06-13.45s12.06,4.73,12.06,13.45v3.13h-20.68ZM209.08,503.81h17.25v-.06c0-6.69-2.94-10.32-8.62-10.32s-8.62,3.69-8.62,10.32v.06Z"/>
    <path class="cls-2" d="M237.45,490.66h3.44v4.18c1.62-2.95,4.5-4.55,9.18-4.55,6.93,0,11.5,4.24,11.5,12.9v18.18h-3.44v-18.12c0-7-3.56-9.76-8.44-9.76-5.87,0-8.81,3.81-8.81,9.46v18.43h-3.44v-30.71Z"/>
    <path class="cls-2" d="M292.57,516.77c-2.06,3.26-5.75,4.98-10.62,4.98-8.37,0-13.19-4.91-13.19-13.58v-4.42c0-8.72,4.94-13.45,13.19-13.45,4.56,0,8.25,1.6,10.56,4.73l-2.75,1.84c-1.75-2.33-4.69-3.44-7.81-3.44-6.19,0-9.75,3.69-9.75,10.32v4.42c0,6.08,2.87,10.44,9.75,10.44,3.19,0,6.12-1.05,7.87-3.75l2.75,1.9Z"/>
    <path class="cls-2" d="M299.89,506.88v1.29c0,6.08,2.87,10.44,9.5,10.44,3.81,0,6.37-1.11,8.12-3.75l2.75,1.9c-2.19,3.38-5.62,4.98-10.68,4.98-8.31,0-13.13-5.04-13.13-13.58v-4.42c0-8.72,4.25-13.45,12.06-13.45s12.06,4.73,12.06,13.45v3.13h-20.68ZM299.89,503.81h17.25v-.06c0-6.69-2.94-10.32-8.62-10.32s-8.62,3.69-8.62,10.32v.06Z"/>
    <path class="cls-2" d="M343.89,478.99h3.44v15.85c1.69-2.95,4.56-4.55,9.19-4.55,6.94,0,11.5,4.24,11.5,12.9v18.18h-3.44v-18.12c0-7-3.56-9.76-8.43-9.76-5.87,0-8.81,3.81-8.81,9.46v18.43h-3.44v-42.38Z"/>
    <path class="cls-2" d="M377.32,478.99h4.19v4.11h-4.19v-4.11ZM377.7,490.66h3.44v30.71h-3.44v-30.71Z"/>
    <path class="cls-2" d="M389.26,503.74c0-8.72,4.44-13.45,12.18-13.45,4.69,0,7.68,1.47,9.43,4.36v-3.99h3.44v29.48c0,8.54-4.69,13.27-12.75,13.27-5,0-8.31-1.6-10.37-4.97l2.69-1.91c1.69,2.64,4.25,3.75,7.88,3.75,6.31,0,9.12-4.05,9.12-10.13v-2.52c-1.75,2.82-4.75,4.11-9.43,4.11-8.12,0-12.18-5.16-12.18-13.58v-4.42ZM410.88,508.23v-4.85c0-6.02-2.69-9.95-9.18-9.95-5.93,0-9,3.63-9,10.32v4.42c0,6.45,2.94,10.44,9,10.44,7,0,9.18-4.36,9.18-10.38Z"/>
    <path class="cls-2" d="M423.07,478.99h3.44v15.85c1.69-2.95,4.56-4.55,9.18-4.55,6.93,0,11.5,4.24,11.5,12.9v18.18h-3.44v-18.12c0-7-3.56-9.76-8.44-9.76-5.87,0-8.81,3.81-8.81,9.46v18.43h-3.44v-42.38Z"/>
    <path class="cls-2" d="M496.63,508.17c0,8.42-4.06,13.58-12.19,13.58-4.75,0-7.69-1.29-9.44-3.99v15.29h-3.44v-42.38h3.44v3.87c1.75-2.77,4.69-4.24,9.44-4.24,7.75,0,12.19,4.73,12.19,13.45v4.42ZM493.19,508.17v-4.42c0-6.69-3.06-10.32-9-10.32-6.62,0-9.19,3.93-9.19,9.95v5.34c.06,5.77,2.31,9.89,9.19,9.89,6,0,9-3.99,9-10.44Z"/>
    <path class="cls-2" d="M505.7,506.88v1.29c0,6.08,2.87,10.44,9.5,10.44,3.81,0,6.37-1.11,8.12-3.75l2.75,1.9c-2.19,3.38-5.62,4.98-10.68,4.98-8.31,0-13.13-5.04-13.13-13.58v-4.42c0-8.72,4.25-13.45,12.06-13.45s12.06,4.73,12.06,13.45v3.13h-20.68ZM505.7,503.81h17.25v-.06c0-6.69-2.94-10.32-8.62-10.32s-8.62,3.69-8.62,10.32v.06Z"/>
    <path class="cls-2" d="M537.51,502.89v18.49h-3.44v-30.71h3.44v4.18c1.31-2.83,3.94-4.55,7.88-4.55s6.75,1.54,8.81,4.24l-2.87,2.09c-1.62-2.09-3.5-3.13-6.25-3.13-4.87,0-7.56,3.81-7.56,9.4Z"/>
    <path class="cls-2" d="M559.51,490.66v-2.21c0-6.45,2-9.46,8.87-9.46h1.44v3.26h-1.38c-5,0-5.5,2.33-5.5,7.06v1.35h6.88v3.13h-6.88v27.58h-3.44v-27.58h-4v-3.13h4Z"/>
    <path class="cls-2" d="M586.57,521.74c-8.06,0-12.68-4.91-12.68-13.51v-4.49c0-8.72,4.69-13.45,12.68-13.45s12.68,4.73,12.68,13.45v4.49c0,8.35-4.31,13.51-12.68,13.51ZM595.81,503.74c0-6.69-3.31-10.32-9.25-10.32s-9.25,3.63-9.25,10.32v4.49c0,6.45,2.94,10.38,9.25,10.38s9.25-3.93,9.25-10.38v-4.49Z"/>
    <path class="cls-2" d="M609.88,502.89v18.49h-3.44v-30.71h3.44v4.18c1.31-2.83,3.94-4.55,7.87-4.55s6.75,1.54,8.81,4.24l-2.87,2.09c-1.62-2.09-3.5-3.13-6.25-3.13-4.87,0-7.56,3.81-7.56,9.4Z"/>
    <path class="cls-2" d="M630.63,490.66h3.44v4.18c1.31-2.83,4.12-4.55,8.25-4.55,4.44,0,7.68,2.09,9.31,6.02,1.75-3.87,5.19-6.02,9.5-6.02,6.56,0,10.56,4.55,10.56,12.9v18.18h-3.44v-18.12c0-6.69-3-9.76-7.5-9.76-5,0-7.87,3.62-7.87,9.03v18.86h-3.44v-18.12c0-6.69-3-9.76-7.5-9.76-5.12,0-7.87,3.81-7.87,9.46v18.43h-3.44v-30.71Z"/>
    <path class="cls-2" d="M689.51,503.93h9.12v-3.81c0-5.22-2.12-6.63-7.87-6.63-3.75,0-6.19.25-8.19,3.5l-2.62-1.78c2.19-3.62,5.31-4.91,10.87-4.91,7.62,0,11.25,2.33,11.25,9.83v21.25h-3.44v-3.81c-1.75,3.26-4.87,4.18-8.87,4.18-6.94,0-10.88-3.26-10.88-9.15s4.19-8.66,10.63-8.66ZM698.63,506.94h-9.12c-5.38,0-7.19,2.46-7.19,5.71,0,4.3,3.06,5.9,7.44,5.9,5.06,0,8.87-1.72,8.87-8.6v-3.01Z"/>
    <path class="cls-2" d="M710.82,490.66h3.44v4.18c1.62-2.95,4.5-4.55,9.18-4.55,6.93,0,11.5,4.24,11.5,12.9v18.18h-3.44v-18.12c0-7-3.56-9.76-8.44-9.76-5.87,0-8.81,3.81-8.81,9.46v18.43h-3.44v-30.71Z"/>
    <path class="cls-2" d="M765.94,516.77c-2.06,3.26-5.75,4.98-10.62,4.98-8.37,0-13.19-4.91-13.19-13.58v-4.42c0-8.72,4.94-13.45,13.19-13.45,4.56,0,8.25,1.6,10.56,4.73l-2.75,1.84c-1.75-2.33-4.69-3.44-7.81-3.44-6.19,0-9.75,3.69-9.75,10.32v4.42c0,6.08,2.87,10.44,9.75,10.44,3.19,0,6.12-1.05,7.87-3.75l2.75,1.9Z"/>
    <path class="cls-2" d="M773.25,506.88v1.29c0,6.08,2.87,10.44,9.5,10.44,3.81,0,6.37-1.11,8.12-3.75l2.75,1.9c-2.19,3.38-5.62,4.98-10.68,4.98-8.31,0-13.13-5.04-13.13-13.58v-4.42c0-8.72,4.25-13.45,12.06-13.45s12.06,4.73,12.06,13.45v3.13h-20.68ZM773.25,503.81h17.25v-.06c0-6.69-2.94-10.32-8.62-10.32s-8.62,3.69-8.62,10.32v.06Z"/>
  </g>
</svg>