<?xml version="1.0" encoding="UTF-8"?>
<svg id="Layer_1" data-name="Layer 1" xmlns="http://www.w3.org/2000/svg" viewBox="0 0 841.89 595.28">
  <defs>
    <style>
      .cls-1 {
        fill: #0553dd;
      }

      .cls-2 {
        fill: #f6b82a;
      }

      .cls-3 {
        fill: #eff4fb;
      }
    </style>
  </defs>
  <path class="cls-3" d="M153.6,448.84c-5.92,6.15-13.69,9.51-23.09,9.51s-16.48-3.25-22.28-9.05c-8.36-8.35-8.12-18.68-8.12-32.96s-.23-24.6,8.12-32.96c5.8-5.81,13-9.05,22.28-9.05,11.49,0,17.87,3.13,25.3,10.56l-10.91,10.91c-4.64-4.64-8.01-7.08-14.39-7.08-4.41,0-8.01,1.74-10.33,4.41-3.14,3.48-3.95,7.31-3.95,23.21s.81,19.84,3.95,23.32c2.32,2.67,5.92,4.3,10.33,4.3,4.88,0,8.36-1.74,11.02-4.64,2.67-2.91,3.6-7.2,3.6-11.26v-2.9h-14.62v-13.46h30.75v11.84c0,11.95-1.86,19.26-7.66,25.3"/>
  <polyline class="cls-3" points="172.98 457.67 172.98 375.03 227.41 375.03 227.41 389.43 189.12 389.43 189.12 408.81 221.73 408.81 221.73 423.2 189.12 423.2 189.12 443.27 227.41 443.27 227.41 457.67 172.98 457.67"/>
  <path class="cls-3" d="M273.84,457.67h-34.58v-82.63h33.19c16.13,0,25.53,9.05,25.53,23.21,0,9.17-6.04,15.08-10.21,17.06,4.99,2.32,11.38,7.54,11.38,18.57,0,15.43-10.56,23.79-25.3,23.79M271.17,389.43h-15.78v19.03h15.78c6.85,0,10.68-3.83,10.68-9.52s-3.83-9.51-10.68-9.51ZM272.22,422.97h-16.83v20.31h16.83c7.31,0,10.79-4.64,10.79-10.21s-3.48-10.1-10.79-10.1Z"/>
  <path class="cls-3" d="M358.79,457.67l-4.87-14.62h-29.36l-4.99,14.62h-16.83l30.06-82.63h12.65l30.17,82.63h-16.83M339.53,399.41l-10.45,30.06h20.54l-10.1-30.06Z"/>
  <polyline class="cls-3" points="436.67 389.43 436.67 457.67 420.54 457.67 420.54 389.43 398.95 389.43 398.95 375.03 458.25 375.03 458.25 389.43 436.67 389.43"/>
  <path class="cls-3" d="M511.29,457.67l-16.13-32.96h-11.6v32.96h-16.13v-82.63h32.38c16.83,0,26.81,11.49,26.81,25.3,0,11.6-7.08,18.8-15.09,21.7l18.45,35.63h-18.69M498.76,389.43h-15.2v21.82h15.2c7.08,0,11.72-4.53,11.72-10.91s-4.64-10.91-11.72-10.91Z"/>
  <path class="cls-3" d="M586.5,457.67l-4.88-14.62h-29.36l-4.99,14.62h-16.83l30.06-82.63h12.65l30.18,82.63h-16.83M567.24,399.41l-10.45,30.06h20.54l-10.09-30.06Z"/>
  <polyline class="cls-3" points="658.57 457.67 625.85 406.95 625.85 457.67 609.72 457.67 609.72 375.03 624.11 375.03 656.83 425.63 656.83 375.03 672.97 375.03 672.97 457.67 658.57 457.67"/>
  <path class="cls-3" d="M711.15,458.36c-12.53,0-22.05-2.66-30.18-10.91l10.45-10.45c5.22,5.23,12.3,6.97,19.96,6.97,9.52,0,14.63-3.6,14.63-10.21,0-2.9-.81-5.34-2.56-6.97-1.62-1.51-3.48-2.32-7.31-2.9l-9.98-1.39c-7.08-1.05-12.3-3.25-16.01-6.85-3.95-3.94-5.92-9.28-5.92-16.25,0-14.74,10.9-25.07,28.78-25.07,11.37,0,19.61,2.78,26.69,9.63l-10.21,10.1c-5.22-4.99-11.49-5.69-16.94-5.69-8.59,0-12.77,4.76-12.77,10.45,0,2.09.7,4.3,2.44,5.92,1.63,1.51,4.3,2.79,7.66,3.25l9.75,1.39c7.54,1.04,12.3,3.13,15.79,6.38,4.41,4.18,6.38,10.21,6.38,17.52,0,16.01-13.34,25.06-30.64,25.06"/>
  <path class="cls-1" d="M629.79,198.43c13.3-9.87,22.65-18.46,28.48-25.92,12.82-16.46,8.28-27.57-10.02-35.55,0,0-140.23-7.24-532.11,191.65,0,0,16.73-6.04,45.45-15.95,80.26-27.7,147.74-40.48,254.12-32.68,13.82,1.02,28.32,2.39,43.56,4.1,30.14,3.4,63.28,8.21,100.31,14.52,0,0,4.57-15.91,16.05-36.72,2.51-4.55,5.38-9.33,8.58-14.24,10.8-16.51,25.63-34.38,45.57-49.21"/>
  <path class="cls-2" d="M693.27,170.49c9.97-35.29-45.01-33.54-45.01-33.54,18.3,7.98,22.84,19.1,10.02,35.55-5.75,7.62-15.13,16.21-28.48,25.92-19.93,14.82-34.77,32.69-45.57,49.21,39.36-16.08,61.76-30.14,61.76-30.14,18.59-12.14,30.14-23.14,45.42-23.14,22.37,0,26.04-.19,26.04,12.04,0,0,30.03-42.81-24.18-35.9"/>
  <path class="cls-2" d="M161.59,312.64c-28.72,9.91-45.45,15.95-45.45,15.95,0,0,114.78-25.92,269.87-35.55,25.92-1.6,50.42-4.79,73.28-8.98-15.24-1.71-29.74-3.08-43.56-4.1-106.38-7.8-173.87,4.98-254.13,32.68"/>
</svg>